<svg width="20" height="20" viewBox="0 0 20 20" fill="none" xmlns="http://www.w3.org/2000/svg">
<path d="M9.86216 7.29441C8.44834 7.29441 7.29456 8.44819 7.29456 9.86201C7.29456 11.2758 8.44834 12.4296 9.86216 12.4296C11.276 12.4296 12.4298 11.2758 12.4298 9.86201C12.4298 8.44819 11.276 7.29441 9.86216 7.29441ZM17.563 9.86201C17.563 8.79876 17.5727 7.74513 17.513 6.68381C17.4533 5.45105 17.172 4.35697 16.2706 3.45552C15.3672 2.55214 14.2751 2.27284 13.0423 2.21313C11.979 2.15342 10.9254 2.16305 9.86409 2.16305C8.80083 2.16305 7.74721 2.15342 6.68588 2.21313C5.45312 2.27284 4.35905 2.55406 3.45759 3.45552C2.55421 4.3589 2.27492 5.45105 2.2152 6.68381C2.15549 7.74706 2.16512 8.80068 2.16512 9.86201C2.16512 10.9233 2.15549 11.9789 2.2152 13.0402C2.27492 14.273 2.55614 15.367 3.45759 16.2685C4.36098 17.1719 5.45312 17.4512 6.68588 17.5109C7.74914 17.5706 8.80276 17.561 9.86409 17.561C10.9273 17.561 11.981 17.5706 13.0423 17.5109C14.2751 17.4512 15.3691 17.17 16.2706 16.2685C17.174 15.3651 17.4533 14.273 17.513 13.0402C17.5746 11.9789 17.563 10.9253 17.563 9.86201ZM9.86216 13.8126C7.67594 13.8126 5.91155 12.0482 5.91155 9.86201C5.91155 7.67579 7.67594 5.91141 9.86216 5.91141C12.0484 5.91141 13.8128 7.67579 13.8128 9.86201C13.8128 12.0482 12.0484 13.8126 9.86216 13.8126ZM13.9746 6.67225C13.4641 6.67225 13.0519 6.26004 13.0519 5.74961C13.0519 5.23917 13.4641 4.82696 13.9746 4.82696C14.485 4.82696 14.8972 5.23917 14.8972 5.74961C14.8974 5.87081 14.8736 5.99086 14.8273 6.10287C14.781 6.21487 14.713 6.31665 14.6273 6.40235C14.5416 6.48806 14.4398 6.55601 14.3278 6.60233C14.2158 6.64864 14.0958 6.6724 13.9746 6.67225Z" fill="#086BED"/>
</svg>
